<?xml version="1.0" encoding="utf-8"?>
<!-- Generator: Adobe Illustrator 25.0.0, SVG Export Plug-In . SVG Version: 6.00 Build 0)  -->
<svg version="1.1" id="Layer_1" xmlns="http://www.w3.org/2000/svg" xmlns:xlink="http://www.w3.org/1999/xlink" x="0px" y="0px"
	 viewBox="0 0 300 330" style="enable-background:new 0 0 300 330;" xml:space="preserve">
<style type="text/css">
	.st0{fill:#1A936F;}
	.st1{fill:#FFFFFF;}
	.st2{display:none;}
	.st3{display:inline;}
</style>
<g>
	<path class="st0" d="M177,13c-0.5-0.12-0.99-0.25-1.49-0.36c-2.74-0.6-5.51-1.07-8.31-1.48c-1.54-0.23-3.07-0.46-4.63-0.63
		c-2.15-0.23-4.31-0.35-6.49-0.46c-1.29-0.07-2.54-0.25-3.84-0.27c-0.75-0.01-1.48,0.07-2.24,0.07s-1.48-0.09-2.24-0.07
		c-1.3,0.02-2.55,0.21-3.84,0.27c-2.18,0.11-4.35,0.24-6.49,0.46c-1.56,0.17-3.09,0.4-4.63,0.63c-2.8,0.41-5.57,0.88-8.31,1.48
		c-0.5,0.11-0.99,0.24-1.49,0.36C70.12,25.25,30.65,72.52,30.65,129.13v3.96v134.35v41.17c0,6.4,5.19,11.59,11.59,11.59h19.57
		c5.82,0,10.35-4.89,10-10.7c-0.63-10.37,0.8-21.3,4.98-32.49c1.24-3.31,2.71-6.49,4.38-9.57h0.11c3.77-6.9,8.55-13.17,14.13-18.62
		c0.19-0.19,0.39-0.36,0.58-0.55c1.51-1.45,32.24-31.04,32.24-31.04c9.13-9,10.51-23.23,3.29-33.82l-15.01-23.3
		c-5.07-6.94-8.15-15.42-8.15-24.67c0-23.2,18.81-42,42-42c23.2,0,42,18.81,42,42c0,9.88-3.56,18.85-9.27,26.03L169,183.33
		c-7.22,10.58-5.84,24.82,3.29,33.82l31.15,30.7c8.61,8.06,15.57,17.91,19.77,29.16c4.18,11.19,5.61,22.12,4.98,32.49
		c-0.35,5.81,4.18,10.7,10,10.7h19.57c6.4,0,11.59-5.19,11.59-11.59v-65.25V133.09v-3.96C269.35,72.52,229.88,25.25,177,13z"/>
</g>
</svg>
